HIERARCHY
ROOT Hips
{
  OFFSET 5.72205e-005 65.662 3.42586
  CHANNELS 6 Xposition Yposition Zposition Zrotation Xrotation Yrotation
  JOINT Chest
  {
    OFFSET 0 8.7983 -4.7612
    CHANNELS 3 Zrotation Xrotation Yrotation
    JOINT Chest2
    {
      OFFSET 0 8.0291 0.4195
      CHANNELS 3 Zrotation Xrotation Yrotation
      JOINT Chest3
      {
        OFFSET 0 9.9351 -2.2114
        CHANNELS 3 Zrotation Xrotation Yrotation
        JOINT Neck
        {
          OFFSET 0 22.3885 -0.4656
          CHANNELS 3 Zrotation Xrotation Yrotation
          JOINT Head
          {
            OFFSET -0.0001 12.643 3.4389
            CHANNELS 3 Zrotation Xrotation Yrotation
            End Site
            {
              OFFSET 0.0001 17.6655 0.5274
            }
          }
        }
        JOINT LeftCollar
        {
          OFFSET 2.2603 21.606 7.4023
          CHANNELS 3 Zrotation Xrotation Yrotation
          JOINT LeftShoulder
          {
            OFFSET 13.5163 -1.1332 -5.0146
            CHANNELS 3 Zrotation Xrotation Yrotation
            JOINT LeftElbow
            {
              OFFSET -0.0995 -28.05 -0.2431
              CHANNELS 3 Zrotation Xrotation Yrotation
              JOINT LeftWrist
              {
                OFFSET 0.0679 -23.3996 -0.1402
                CHANNELS 3 Zrotation Xrotation Yrotation
                JOINT LeftFinger1
                {
                  OFFSET 0.7932 -9.069 2.5189
                  CHANNELS 3 Zrotation Xrotation Yrotation
                  JOINT LeftFinger11
                  {
                    OFFSET -0.8272 -3.3923 0.5977
                    CHANNELS 3 Zrotation Xrotation Yrotation
                    JOINT LeftFinger12
                    {
                      OFFSET -0.5649 -2.3158 0.4082
                      CHANNELS 3 Zrotation Xrotation Yrotation
                      End Site
                      {
                        OFFSET -0.4919 -1.6479 0.2673
                      }
                    }
                  }
                }
                JOINT LeftFinger2
                {
                  OFFSET 0.9159 -9.2044 0.2193
                  CHANNELS 3 Zrotation Xrotation Yrotation
                  JOINT LeftFinger21
                  {
                    OFFSET 0.0117 -4.1944 -0.0248
                    CHANNELS 3 Zrotation Xrotation Yrotation
                    JOINT LeftFinger22
                    {
                      OFFSET 0.0071 -2.3249 -0.0142
                      CHANNELS 3 Zrotation Xrotation Yrotation
                      End Site
                      {
                        OFFSET -0.1475 -2.0882 0.0028
                      }
                    }
                  }
                }
                JOINT LeftFinger3
                {
                  OFFSET 0.6113 -8.7231 -2.0637
                  CHANNELS 3 Zrotation Xrotation Yrotation
                  JOINT LeftFinger31
                  {
                    OFFSET -0.1927 -3.8059 -0.2383
                    CHANNELS 3 Zrotation Xrotation Yrotation
                    JOINT LeftFinger32
                    {
                      OFFSET -0.1091 -2.1688 -0.1362
                      CHANNELS 3 Zrotation Xrotation Yrotation
                      End Site
                      {
                        OFFSET -0.2358 -1.9176 -0.0906
                      }
                    }
                  }
                }
                JOINT LeftFinger4
                {
                  OFFSET -0.6151 -8.0947 -3.5641
                  CHANNELS 3 Zrotation Xrotation Yrotation
                  JOINT LeftFinger41
                  {
                    OFFSET -0.4882 -2.341 -0.6462
                    CHANNELS 3 Zrotation Xrotation Yrotation
                    JOINT LeftFinger42
                    {
                      OFFSET -0.3575 -1.7167 -0.4742
                      CHANNELS 3 Zrotation Xrotation Yrotation
                      End Site
                      {
                        OFFSET -0.4187 -1.5237 -0.3496
                      }
                    }
                  }
                }
                JOINT LeftFinger0
                {
                  OFFSET -1.42 -1.8761 1.4223
                  CHANNELS 3 Zrotation Xrotation Yrotation
                  JOINT LeftFinger01
                  {
                    OFFSET -1.1471 -3.4929 2.6334
                    CHANNELS 3 Zrotation Xrotation Yrotation
                    JOINT LeftFinger02
                    {
                      OFFSET -0.823 -2.3 1.6571
                      CHANNELS 3 Zrotation Xrotation Yrotation
                      End Site
                      {
                        OFFSET -0.5822 -1.6914 1.1582
                      }
                    }
                  }
                }
              }
            }
          }
        }
        JOINT RightCollar
        {
          OFFSET -2.2603 21.606 7.4023
          CHANNELS 3 Zrotation Xrotation Yrotation
          JOINT RightShoulder
          {
            OFFSET -13.5187 -1.1334 -5.0155
            CHANNELS 3 Zrotation Xrotation Yrotation
            JOINT RightElbow
            {
              OFFSET 0.0994 -28.0499 -0.2431
              CHANNELS 3 Zrotation Xrotation Yrotation
              JOINT RightWrist
              {
                OFFSET -0.0679 -23.3996 -0.1402
                CHANNELS 3 Zrotation Xrotation Yrotation
                JOINT RightFinger1
                {
                  OFFSET -0.7932 -9.0691 2.5189
                  CHANNELS 3 Zrotation Xrotation Yrotation
                  JOINT RightFinger11
                  {
                    OFFSET 0.8272 -3.3923 0.5977
                    CHANNELS 3 Zrotation Xrotation Yrotation
                    JOINT RightFinger12
                    {
                      OFFSET 0.565 -2.3158 0.4082
                      CHANNELS 3 Zrotation Xrotation Yrotation
                      End Site
                      {
                        OFFSET 0.4919 -1.6479 0.2673
                      }
                    }
                  }
                }
                JOINT RightFinger2
                {
                  OFFSET -0.916 -9.2044 0.2193
                  CHANNELS 3 Zrotation Xrotation Yrotation
                  JOINT RightFinger21
                  {
                    OFFSET -0.0117 -4.1944 -0.0248
                    CHANNELS 3 Zrotation Xrotation Yrotation
                    JOINT RightFinger22
                    {
                      OFFSET -0.0071 -2.3249 -0.0142
                      CHANNELS 3 Zrotation Xrotation Yrotation
                      End Site
                      {
                        OFFSET 0.1475 -2.0882 0.0028
                      }
                    }
                  }
                }
                JOINT RightFinger3
                {
                  OFFSET -0.6113 -8.7231 -2.0637
                  CHANNELS 3 Zrotation Xrotation Yrotation
                  JOINT RightFinger31
                  {
                    OFFSET 0.1927 -3.8059 -0.2383
                    CHANNELS 3 Zrotation Xrotation Yrotation
                    JOINT RightFinger32
                    {
                      OFFSET 0.1091 -2.1688 -0.1362
                      CHANNELS 3 Zrotation Xrotation Yrotation
                      End Site
                      {
                        OFFSET 0.2358 -1.9176 -0.0906
                      }
                    }
                  }
                }
                JOINT RightFinger4
                {
                  OFFSET 0.6151 -8.0947 -3.564
                  CHANNELS 3 Zrotation Xrotation Yrotation
                  JOINT RightFinger41
                  {
                    OFFSET 0.4882 -2.341 -0.6462
                    CHANNELS 3 Zrotation Xrotation Yrotation
                    JOINT RightFinger42
                    {
                      OFFSET 0.3574 -1.7166 -0.4742
                      CHANNELS 3 Zrotation Xrotation Yrotation
                      End Site
                      {
                        OFFSET 0.4187 -1.5237 -0.3496
                      }
                    }
                  }
                }
                JOINT RightFinger0
                {
                  OFFSET 1.4199 -1.8761 1.4221
                  CHANNELS 3 Zrotation Xrotation Yrotation
                  JOINT RightFinger01
                  {
                    OFFSET 1.1472 -3.4929 2.6336
                    CHANNELS 3 Zrotation Xrotation Yrotation
                    JOINT RightFinger02
                    {
                      OFFSET 0.8229 -2.3 1.6571
                      CHANNELS 3 Zrotation Xrotation Yrotation
                      End Site
                      {
                        OFFSET 0.5822 -1.6914 1.1582
                      }
                    }
                  }
                }
              }
            }
          }
        }
      }
    }
  }
  JOINT RightHip
  {
    OFFSET -9.412 3.9771 -0.7758
    CHANNELS 3 Zrotation Xrotation Yrotation
    JOINT RightKnee
    {
      OFFSET -0.7531 -40.938 0
      CHANNELS 3 Zrotation Xrotation Yrotation
      JOINT RightAnkle
      {
        OFFSET 0 -40.1986 0
        CHANNELS 3 Zrotation Xrotation Yrotation
        JOINT RightToe
        {
          OFFSET 0 -4.4182 9.239
          CHANNELS 3 Zrotation Xrotation Yrotation
          End Site
          {
            OFFSET 0 0 6.1981
          }
        }
      }
    }
  }
  JOINT LeftHip
  {
    OFFSET 9.4119 3.9773 -0.7758
    CHANNELS 3 Zrotation Xrotation Yrotation
    JOINT LeftKnee
    {
      OFFSET 0.7532 -40.9383 0
      CHANNELS 3 Zrotation Xrotation Yrotation
      JOINT LeftAnkle
      {
        OFFSET 0 -40.1986 0
        CHANNELS 3 Zrotation Xrotation Yrotation
        JOINT LeftToe
        {
          OFFSET 0 -4.4182 9.239
          CHANNELS 3 Zrotation Xrotation Yrotation
          End Site
          {
            OFFSET 0 0 6.1981
          }
        }
      }
    }
  }
}
MOTION
Frames:	4
Frame Time:	0.0333333
5.72205e-005 65.662 3.42586 0 0 -0 0 0 -0 0 0 -0 0 0 -0 0 0 -0 0 0 -0 0 0 -12.5014 88.1196 14.2451 10.6914 -0.00160068 -0.00239207 0.000740045 -8.4365e-005 7.00714e-005 -9.52055e-007 9.93923e-017 -1.98785e-016 -1.59028e-015 9.93923e-017 -5.96354e-016 -1.59028e-015 -9.93923e-017 -5.96354e-016 -1.59028e-015 9.93923e-017 -1.98785e-016 -1.59028e-015 -0.0128176 0.00232552 8.52707e-005 9.93923e-017 5.96354e-016 -0 9.93923e-017 -1.98785e-016 -1.59028e-015 -0.0160551 0.00299681 0.000857156 -2.48481e-016 0 3.18055e-015 9.93923e-017 -1.98785e-016 -1.59028e-015 -0.0125865 0.0031206 0.00282719 0 1.98785e-016 -0 9.93923e-017 -1.98785e-016 -1.59028e-015 9.93923e-017 -5.96354e-016 -1.59028e-015 -9.93923e-017 -5.96354e-016 -1.59028e-015 -0.865644 0.16582 7.03859 -88.0329 10.2057 -10.5567 0.0015593 -0.00248883 -0.000788628 7.87605e-005 4.10553e-005 1.24965e-005 -3.97569e-016 -7.95139e-016 3.18055e-015 -1.98785e-016 -3.97569e-016 3.18055e-015 -1.98785e-016 0 3.18055e-015 -3.97569e-016 -7.95139e-016 3.18055e-015 0.0129473 0.00231697 -8.70038e-005 9.93923e-017 -7.95139e-016 1.59028e-015 -3.97569e-016 -7.95139e-016 3.18055e-015 0.0163314 0.00303369 -0.000872333 3.97569e-016 7.95139e-016 -3.18055e-015 -3.97569e-016 -7.95139e-016 3.18055e-015 0.0145763 0.00367772 -0.00326275 9.93923e-017 -3.97569e-016 -0 -3.97569e-016 -7.95139e-016 3.18055e-015 -1.98785e-016 -3.97569e-016 3.18055e-015 -1.98785e-016 0 3.18055e-015 3.42482 1.32465 -0.0626183 0.000117508 0.717283 0.000978199 -3.4257 -2.04197 -0.0604716 6.47761e-025 0 -0 -3.42483 1.34017 0.0627307 -0.000193936 0.682302 -0.0013703 3.42574 -2.02253 0.0595886 -8.45714e-024 0 -7.40531e-025 
-6.97253 18.1111 34.3509 -180 73.0052 180 -0.0734909 -7.95297 -0.43921 -0.212359 -15.9052 -0.902087 -0.21236 -15.9052 -0.90209 1.14372e-006 -15.0016 3.26947e-006 -2.16986e-007 -0.792106 -2.65267e-007 -2.14507 -5.01636 -53.4536 92.4056 1.67428 10.0106 25.7452 -28.4721 15.5237 14.1701 -12.5808 5.78932 -3.18055e-015 0 -4.96962e-015 -3.18055e-015 -3.97569e-016 -4.67144e-015 3.18055e-015 3.97569e-016 -2.5842e-015 -3.18055e-015 0 -4.96962e-015 -0.0128594 0.00234332 8.89438e-005 -6.36111e-015 1.31198e-014 -1.2921e-015 -3.18055e-015 0 -4.96962e-015 -0.0160274 0.00299117 0.000868672 -3.18055e-015 -7.95139e-016 -1.49089e-015 -3.18055e-015 0 -4.96962e-015 -0.0125994 0.0031331 0.00282901 -3.18055e-015 -3.97569e-016 -3.77691e-015 -3.18055e-015 0 -4.96962e-015 -3.18055e-015 -3.97569e-016 -4.67144e-015 3.18055e-015 3.97569e-016 -2.5842e-015 1.77338 -5.73987 49.1152 -92.5332 -2.73447 -10.3074 -20.8263 -28.8684 -12.3917 -13.7059 -11.0819 -5.7939 2.20695e-032 -7.95139e-016 1.59028e-015 -1.10348e-032 -7.95139e-016 -7.95139e-016 -3.18055e-015 7.95139e-016 3.97569e-016 2.20695e-032 -7.95139e-016 1.59028e-015 0.0130041 0.00232702 -8.88494e-005 -3.18055e-015 1.27222e-014 -4.37326e-015 2.20695e-032 -7.95139e-016 1.59028e-015 0.0163486 0.0030296 -0.000869943 -3.94532e-007 5.80204e-007 1.13458e-006 2.20695e-032 -7.95139e-016 1.59028e-015 0.0145604 0.00367436 -0.00326141 -3.18055e-015 0 5.96354e-016 2.20695e-032 -7.95139e-016 1.59028e-015 -1.10348e-032 -7.95139e-016 -7.95139e-016 -3.18055e-015 7.95139e-016 3.97569e-016 3.4912 -58.4697 -0.245042 -0.468038 50.484 1.35952 -8.1929 6.428 -0.759585 -7.07246e-007 5.25968e-008 -6.37165e-007 -3.49285 -58.4648 0.24851 0.432885 50.4938 -1.36567 8.17855 6.42031 0.773834 -3.53633e-007 -2.6542e-008 -3.18611e-007 
-6.97168 17.6193 34.5066 -180 74.3848 180 -0.0780343 -7.41915 -0.438332 -0.216635 -14.8375 -0.898414 -0.216637 -14.8376 -0.898418 -4.02736e-007 -15.8882 -1.91036e-007 -1.85459e-007 -1.57982 -8.37077e-007 -1.76611 -5.83489 -53.1076 92.4056 1.67425 10.0106 26.0136 -28.7059 15.6546 14.5861 -12.2002 6.28026 -6.36111e-015 -1.59028e-015 1.2921e-015 -6.36111e-015 0 -1.59028e-015 -3.18055e-015 -7.95139e-016 1.49089e-015 -6.36111e-015 -1.59028e-015 1.2921e-015 -0.0128075 0.00233199 9.34476e-005 2.75869e-033 -3.97569e-016 3.97569e-016 -6.36111e-015 -1.59028e-015 1.2921e-015 -0.0160111 0.00298812 0.000861384 3.18055e-015 -7.95139e-016 -4.96962e-016 -6.36111e-015 -1.59028e-015 1.2921e-015 -0.0125894 0.0031276 0.00283058 -0 0 7.95139e-016 -6.36111e-015 -1.59028e-015 1.2921e-015 -6.36111e-015 0 -1.59028e-015 -3.18055e-015 -7.95139e-016 1.49089e-015 1.42967 -6.55684 48.7333 -92.5332 -2.73445 -10.3075 -21.0872 -29.1545 -12.5288 -14.1048 -10.6745 -6.28344 3.96304e-006 -5.93233e-007 2.66797e-006 -0 0 1.98785e-015 3.18055e-015 -7.95139e-016 1.19271e-015 3.96304e-006 -5.93233e-007 2.66797e-006 0.0129299 0.00231675 -9.00047e-005 -9.54166e-015 7.95139e-016 1.39149e-015 3.96304e-006 -5.93233e-007 2.66797e-006 0.0163879 0.00304103 -0.000879073 -1.19175e-030 -4.77083e-015 -1.43125e-014 3.96304e-006 -5.93233e-007 2.66797e-006 0.0145266 0.00365565 -0.00325026 -6.36111e-015 -1.59028e-015 1.98785e-016 3.96304e-006 -5.93233e-007 2.66797e-006 -0 0 1.98785e-015 3.18055e-015 -7.95139e-016 1.19271e-015 3.38001 -56.6214 -0.313623 -0.460923 50.4587 1.35483 -8.19355 6.42919 -0.759017 -7.95139e-016 -3.18055e-015 -1.98785e-016 -3.38323 -56.6228 0.306677 0.340575 50.2068 -1.30503 8.1835 6.43675 0.766261 -9.07681e-007 1.91762e-005 -8.46859e-007 
-6.97085 17.1281 34.6669 -180 75.7676 180 -0.0825782 -6.87793 -0.437221 -0.220885 -13.755 -0.894294 -0.220886 -13.755 -0.894299 1.29163e-006 -16.7756 2.58977e-006 7.18414e-007 -2.36814 -2.78633e-007 -1.38115 -6.65199 -52.7552 92.4056 1.67427 10.0106 26.2831 -28.9391 15.787 14.9985 -11.8161 6.76794 -6.36111e-015 3.97569e-016 1.19271e-015 -6.36111e-015 7.95139e-016 -8.94531e-016 3.18055e-015 3.97569e-016 -2.48481e-015 -6.36111e-015 3.97569e-016 1.19271e-015 -0.0128306 0.00233212 8.02164e-005 1.78625e-031 1.47101e-014 -6.95746e-016 -6.36111e-015 3.97569e-016 1.19271e-015 -0.0160827 0.00301414 0.000860207 0 7.95139e-016 -0 -6.36111e-015 3.97569e-016 1.19271e-015 -0.0126413 0.00313788 0.0028463 6.36111e-015 7.95139e-016 -1.39149e-015 -6.36111e-015 3.97569e-016 1.19271e-015 -6.36111e-015 7.95139e-016 -8.94531e-016 3.18055e-015 3.97569e-016 -2.48481e-015 1.07948 -7.37235 48.3454 -92.5333 -2.73443 -10.3075 -21.3497 -29.4401 -12.6678 -14.4997 -10.2635 -6.76974 -3.18055e-015 -2.38542e-015 3.18055e-015 4.13804e-032 -7.95139e-016 2.98177e-015 -3.18055e-015 -7.95139e-016 2.98177e-015 -3.18055e-015 -2.38542e-015 3.18055e-015 0.013018 0.00233264 -8.86534e-005 -5.51738e-033 -7.95139e-016 -3.97569e-016 -3.18055e-015 -2.38542e-015 3.18055e-015 0.0164237 0.00303877 -0.000875442 0 0 -7.95139e-016 -3.18055e-015 -2.38542e-015 3.18055e-015 0.0145227 0.00365426 -0.00324819 -6.36111e-015 -7.95139e-016 2.5842e-015 -3.18055e-015 -2.38542e-015 3.18055e-015 4.13804e-032 -7.95139e-016 2.98177e-015 -3.18055e-015 -7.95139e-016 2.98177e-015 3.27717 -54.7651 -0.373185 -0.453762 50.4334 1.35015 -8.19411 6.43022 -0.758437 -5.83972e-007 -9.83636e-006 -5.76454e-007 -3.28185 -54.7727 0.355907 0.249262 49.9194 -1.24549 8.18837 6.45324 0.758685 -7.60918e-007 -2.75591e-008 -4.36543e-007 
